PathFileType	4	(X/Y/Z)	Patient4_TMGait_0pt4_03_right_08.trc.trc
DataRate	CameraRate	NumFrames	NumMarkers	Units	OrigDataRate	OrigDataStartFrame	OrigNumFrames
73.684210526316	73.684210526316	6	33	mm	73.684210526316	71	       141
Frame#	Time	Sacral			L.Shoulder			Chest			R.Shoulder			Neck			R.ASIS			L.ASIS			R.Thigh.Superior			R.Thigh.Lateral			R.Thigh.Inferior			R.Patella			L.Thigh.Superior			L.Thigh.Lateral			L.Thigh.Inferior			L.Patella			L.Shank.Superior			L.Shank.Lateral			L.Shank.Inferior			R.Shank.Superior			R.Shank.Lateral			R.Shank.Inferior			R.Heel			R.Midfoot.Superior			R.Midfoot.Lateral			R.Toe			L.Heel			L.Midfoot.Lateral			L.Midfoot.Superior			L.Toe			L.Elbow			L.Wrist			R.Elbow			R.Wrist			
		X1	Y1	Z1	X2	Y2	Z2	X3	Y3	Z3	X4	Y4	Z4	X5	Y5	Z5	X6	Y6	Z6	X7	Y7	Z7	X8	Y8	Z8	X9	Y9	Z9	X10	Y10	Z10	X11	Y11	Z11	X12	Y12	Z12	X13	Y13	Z13	X14	Y14	Z14	X15	Y15	Z15	X16	Y16	Z16	X17	Y17	Z17	X18	Y18	Z18	X19	Y19	Z19	X20	Y20	Z20	X21	Y21	Z21	X22	Y22	Z22	X23	Y23	Z23	X24	Y24	Z24	X25	Y25	Z25	X26	Y26	Z26	X27	Y27	Z27	X28	Y28	Z28	X29	Y29	Z29	X30	Y30	Z30	X31	Y31	Z31	X32	Y32	Z32	X33	Y33	Z33	

71	10.350000000000	830.492912772192	1000.125551844506	533.206195232659	982.081136121247	1429.762551387090	337.154071074676	1107.734507662869	1358.592734442649	479.923206750005	1052.536301716122	1428.923240319359	666.079018681120	1003.639878685220	1490.396377830083	492.876562945364	1070.339372598664	936.451126714787	624.361356911260	1025.880911769120	957.586898130744	352.251051221670	1074.974910471326	726.253046290547	595.520606447105	981.649618824672	627.605005977829	665.289499313067	1040.689980105374	565.040028191302	581.590205064797	1025.820238212775	478.225819201270	588.959155644525	1096.937447511276	765.560126615563	372.364460600429	1035.787690021641	636.535485689208	302.043018140244	1141.781727831515	576.076706773108	355.610560958833	1164.800231317047	511.034355719963	353.531524787202	1146.175531214088	439.413684718122	344.851958477985	1073.165571165667	311.923264470526	298.473148611702	1159.501384913509	209.767350478455	348.323504765097	987.427855538522	392.958677683846	598.651579972528	907.086162686055	299.602745720457	667.498405493201	931.464863496200	200.386764994433	601.929797913906	780.123608848110	42.920150822107	581.549926266244	953.198221319876	96.257856829524	608.561270427507	866.713585133034	36.310962642809	651.905676686396	1074.223053562220	43.144678297385	630.664971569280	1068.655004470829	40.538728667695	390.369816055087	1140.746271932737	38.794321855156	308.727154051683	1219.375987415495	107.413771888446	329.402925777163	1348.912593279272	64.694500959698	299.772802526592	870.810783762485	1092.347320563675	235.566904912768	901.674903666507	834.975612823046	192.298019755947	1135.181177874197	1089.645243689261	780.788539967193	1358.409628015220	988.206537763181	701.592159078306	
72	10.363571428571	831.659453391207	998.989007746467	530.604192726166	981.730962206783	1428.532283433488	333.457817657877	1107.761861873877	1358.274418026749	476.368218398139	1052.177629919535	1428.745942227668	662.401157560978	1002.945713465547	1489.613239247351	489.015577410101	1071.720793424627	935.682332708789	621.793068691487	1027.268486356868	956.613672086514	349.752633438924	1076.087297892502	725.097471019672	593.467162086108	982.058359701453	626.734696586067	663.197966534345	1040.793013101984	563.721089810470	579.682165193273	1025.361945831547	476.420113665628	587.013613707669	1098.554304411871	763.785590452696	370.954770341123	1036.147718814792	634.922529759805	301.725714823533	1141.749843211358	574.451212835239	355.929335647450	1163.524336428442	508.616748020917	354.530476568154	1144.382415032997	436.696066405313	345.571324178837	1069.752103331926	309.981988219075	299.715705423895	1154.411672391207	206.915633415351	350.219056029371	985.803866794962	391.705517555989	597.025672962220	904.555444812637	299.438029800578	666.357978706092	927.460658301146	199.780496107162	601.105070068409	774.719141750127	43.136210008613	581.549002134552	947.839108955162	96.215547195606	608.386093744633	861.306825252524	36.381316964747	651.838002741451	1068.817309403779	42.821117107051	630.712701719205	1060.746773053232	39.747645517867	392.668733119611	1132.488500561260	37.580694141204	310.620110251605	1212.599797576474	104.119205191809	332.002714146984	1341.425128350078	59.033632215994	301.311402718259	871.963410476868	1090.497659316569	232.331535045420	903.901278566115	833.224390815993	189.220302578569	1133.166316479922	1089.084979297114	777.615942838958	1354.631807492525	985.836091355577	695.935025746908	
73	10.377142857143	832.809128444974	997.921088102760	527.966568523180	981.446441429205	1427.314328688545	329.563025670855	1107.850078373543	1358.002946610221	472.631483284351	1051.914832018895	1428.717622231123	658.509152067863	1002.317120370458	1488.903458114415	484.910302422626	1073.110343330948	934.960171757490	619.034237605734	1028.594459939813	955.785832437087	347.158463929064	1077.457945777843	724.022929332726	591.245173569566	982.897242067135	625.837700156992	660.937601192230	1041.388881071919	562.425610246710	577.596391444061	1025.506395111919	474.507477420769	584.969148537986	1100.389686734198	762.395351491175	369.592985041630	1037.084675513858	633.792476772430	301.110927013479	1142.232165773068	573.325473448628	356.099514991049	1162.686456974701	506.631984770786	355.317397606965	1143.115009471342	434.390854723471	345.980372110345	1067.023302267544	308.521087089456	300.197693392605	1149.743746742290	204.502234334533	351.621643035962	984.580373972428	390.426488402393	595.290302774385	902.331374298066	299.371156871832	665.118461622280	923.644006150944	199.241929266001	600.247705369872	769.338897146042	43.576140060599	581.564780960589	942.579968052297	96.223129736783	608.210072524411	855.941373682094	36.554170111531	651.754015380306	1063.462581532041	42.429169888929	630.766376249403	1053.198437937690	39.121495028839	394.233393369309	1124.684185987789	36.720798901048	311.858084879878	1206.010045608744	101.491944035161	333.999849725342	1334.277482343307	54.461674151954	302.400682001675	873.350828554648	1088.603222197212	228.893664680216	906.711060116916	831.471571536699	185.916553674165	1130.809790711976	1088.706944638276	774.610760407364	1350.166727908853	982.873724809482	690.644082730009	
74	10.390714285714	833.914977766566	996.975957008922	525.310055710852	981.226848840861	1426.157981140026	325.512962609059	1107.997713926531	1357.796347742911	468.740366739539	1051.783913922523	1428.869954792285	654.432705601475	1001.776841408278	1488.304637382722	480.603703950107	1074.459996616925	934.329626700171	616.067395698302	1029.801003917070	955.147885629318	344.439484022212	1079.008694146145	723.081482352154	588.818537735246	984.140849723345	624.957527971157	658.512649568980	1042.464160398302	561.205490622753	575.335383693946	1026.278983388673	472.531200201340	582.877280017956	1102.391306351171	761.493266022411	368.213300658980	1038.590933577574	633.185399179221	300.154173296241	1143.214362860092	572.713790832552	355.992115706859	1162.311401909625	505.134933692048	355.763908006889	1142.396449808373	432.548602786225	346.038815073295	1065.041973710955	307.562069527539	299.900090123012	1145.589951169181	202.595760307453	352.529497133224	983.780133646319	389.170466702818	593.488187354746	900.415871938186	299.462380351024	663.798974320701	920.037217312772	198.828314604182	599.385148030994	763.993688661606	44.334761512683	581.605774886286	937.453682545997	96.294685456508	608.050974659423	850.627369675085	36.874425077905	651.661510085888	1058.168118719027	41.974000499281	630.823388393130	1046.186736822385	38.674187445359	395.124251930259	1117.512123427419	36.184574076756	312.510773630923	1199.745081387192	99.587351924217	335.379183022832	1327.619255528147	51.091248718243	303.076871396582	874.978905757306	1086.723960290950	225.265997934467	910.099058573130	829.779984486912	182.409341470722	1128.116710620648	1088.533835308495	771.741708569895	1345.007358784879	979.315835578650	685.763423051212	
75	10.404285714286	834.964746297842	996.194832067839	522.628571411519	981.059203014116	1425.108701853796	321.350381279112	1108.194929191019	1357.674452923671	464.722548536782	1051.799332895051	1429.221847474891	650.204905938104	1001.329632340256	1487.846723559071	476.144555868298	1075.731146010984	933.834065140672	612.885345598937	1030.864083276305	954.723996042153	341.564623575895	1080.665777237571	722.320991354389	586.172906938717	985.757051590155	624.139318057538	655.941605532536	1044.013583365090	560.112584271062	572.922913278635	1027.709606055813	470.538192113687	580.812262490212	1104.499499037941	761.119188352917	366.728537992356	1040.581758932989	633.069144438443	298.845608934588	1144.610089204660	572.551068531578	355.504795720826	1162.357369629928	504.104227090232	355.787602035107	1142.164110938734	431.149355284229	345.749955215016	1063.739996191620	307.060871335977	298.904003588936	1141.932634981125	201.189692459711	352.997393641677	983.439367456807	387.985558024260	591.680779088242	898.816819408216	299.775549721796	662.427985591946	916.673032810794	198.600120501837	598.554924913822	758.702142993080	45.518647254692	581.680959076665	932.498863718829	96.442423536176	607.931400265857	845.377179492712	37.392870856374	651.571790870934	1052.939729310798	41.468279261424	630.880177679262	1039.752867397933	38.396047533893	395.459341853434	1111.002479897207	35.912370524055	312.691735230746	1193.841600362571	98.365591755762	336.194554168152	1321.476107358426	48.870992393766	303.406094078501	876.840545952811	1084.914925580827	221.463364841773	914.057705997346	828.211188948793	178.724229286927	1125.092252242836	1088.579823728363	768.973097058503	1339.148180509822	975.170245984714	681.331814569178	
76	10.417857142857	835.957436422747	995.602713824051	519.893152724473	980.923775997954	1424.203120381348	317.111207719543	1108.424955008718	1357.658446625994	460.605145070084	1051.946574659535	1429.777341559576	645.859870209796	1000.961772609609	1487.549420541402	471.580882924347	1076.896456820310	933.509222443815	609.501327523076	1031.795951696748	954.517411745724	338.512385633998	1082.377787440236	721.779264358380	583.319959680928	987.720568961773	623.422235052990	653.252873379055	1046.050694452453	559.192642624816	570.396411707255	1029.839443769055	468.574105713268	578.854440714251	1106.646798592223	761.233680682077	365.040095525519	1042.878763429795	633.341206807605	297.213163465901	1146.256413643509	572.705171840350	354.577948043486	1162.710064682616	503.456663562209	355.369393867853	1142.274958049172	430.119485130790	345.156309785374	1062.942564069404	306.921232570387	297.370192015420	1138.672476511489	200.218661959660	353.118635182404	983.614098134506	386.913319408346	589.935076527263	897.559742988580	300.373143009487	661.036900071663	913.599853695755	198.616869504104	597.797544098586	753.494820839183	47.242469464635	581.797672628517	927.760025304371	96.675878404021	607.875211922442	840.207094087750	38.166397071086	651.497617240395	1047.777987274242	40.930299856754	630.932556774827	1033.840185322134	38.258955062338	395.386125211997	1105.079706631115	35.831035101252	312.534309507814	1188.264382522566	97.718736105158	336.549597390681	1315.787093487283	47.631776502586	303.472412581870	878.912900227964	1083.221764796016	217.502245792472	918.573380475869	826.820758900816	174.888988466254	1121.742846916167	1088.847859440145	766.266887168473	1332.587587272209	970.457152346943	677.383547665646	
